<svg xmlns="http://www.w3.org/2000/svg" version="1.1" xmlns:xlink="http://www.w3.org/1999/xlink" xmlns:svgjs="http://svgjs.com/svgjs" width="960" height="1080" preserveAspectRatio="none" viewBox="0 0 960 1080">
    <g mask="url(&quot;#SvgjsMask1021&quot;)" fill="none">
        <rect width="960" height="1080" x="0" y="0" fill="rgba(244, 200, 225, 1)"></rect>
        <path d="M0,341.889C64.663,358.163,133.071,330.272,190.72,296.766C250.024,262.298,298.919,211.88,329.408,150.436C360.513,87.751,388.502,13.199,363.942,-52.327C339.806,-116.722,262.591,-139.375,206.089,-178.577C163.763,-207.943,118.896,-227.352,74.358,-253.242C12.833,-289.007,-35.355,-370.924,-105.643,-359.788C-173.778,-348.993,-194.026,-259.197,-235.587,-204.137C-273.963,-153.297,-322.105,-109.973,-340.291,-48.926C-360.265,18.12,-385.775,101.26,-343.078,156.678C-298.778,214.177,-201.487,179.652,-137.615,214.133C-81.398,244.482,-61.954,326.297,0,341.889" fill="#e57eb9"></path>
        <path d="M960 1486.3809999999999C1033.526 1502.529 1104.94 1442.026 1158.979 1389.618 1207.584 1342.48 1222.525 1274.012 1244.878 1210.1 1265.186 1152.037 1289.749 1094.68 1283.538 1033.482 1277.176 970.7909999999999 1251.1779999999999 911.071 1209.715 863.621 1168.354 816.287 1111.445 787.269 1051.597 768.048 990.573 748.4490000000001 926.045 737.058 863.849 752.5409999999999 800.1990000000001 768.386 738.552 801.758 700.7760000000001 855.381 664.373 907.054 667.552 974.271 663.221 1037.33 659.1949999999999 1095.938 648.81 1157.656 676.453 1209.492 703.5360000000001 1260.279 769.063 1272.813 810.2429999999999 1313.026 866.005 1367.479 883.875 1469.662 960 1486.3809999999999" fill="#ffffff"></path>
    </g>
    <defs>
        <mask id="SvgjsMask1021">
            <rect width="960" height="1080" fill="#ffffff"></rect>
        </mask>
    </defs>
</svg>