<svg id="visual" viewBox="0 0 900 600" width="900" height="600" xmlns="http://www.w3.org/2000/svg" xmlns:xlink="http://www.w3.org/1999/xlink" version="1.1"><path d="M665 600L719 600L719 545L629 545L629 491L755 491L755 436L701 436L701 382L737 382L737 327L548 327L548 273L647 273L647 218L656 218L656 164L566 164L566 109L611 109L611 55L512 55L512 0L900 0L900 55L900 55L900 109L900 109L900 164L900 164L900 218L900 218L900 273L900 273L900 327L900 327L900 382L900 382L900 436L900 436L900 491L900 491L900 545L900 545L900 600L900 600Z" fill="#00e86c"></path><path d="M431 600L341 600L341 545L395 545L395 491L359 491L359 436L422 436L422 382L386 382L386 327L395 327L395 273L368 273L368 218L368 218L368 164L404 164L404 109L350 109L350 55L251 55L251 0L513 0L513 55L612 55L612 109L567 109L567 164L657 164L657 218L648 218L648 273L549 273L549 327L738 327L738 382L702 382L702 436L756 436L756 491L630 491L630 545L720 545L720 600L666 600Z" fill="#00d463"></path><path d="M260 600L152 600L152 545L224 545L224 491L296 491L296 436L260 436L260 382L215 382L215 327L197 327L197 273L197 273L197 218L296 218L296 164L269 164L269 109L251 109L251 55L161 55L161 0L252 0L252 55L351 55L351 109L405 109L405 164L369 164L369 218L369 218L369 273L396 273L396 327L387 327L387 382L423 382L423 436L360 436L360 491L396 491L396 545L342 545L342 600L432 600Z" fill="#00c15a"></path><path d="M125 600L89 600L89 545L152 545L152 491L242 491L242 436L134 436L134 382L71 382L71 327L143 327L143 273L134 273L134 218L224 218L224 164L161 164L161 109L152 109L152 55L98 55L98 0L162 0L162 55L252 55L252 109L270 109L270 164L297 164L297 218L198 218L198 273L198 273L198 327L216 327L216 382L261 382L261 436L297 436L297 491L225 491L225 545L153 545L153 600L261 600Z" fill="#00ae51"></path><path d="M0 600L0 600L0 545L0 545L0 491L0 491L0 436L0 436L0 382L0 382L0 327L0 327L0 273L0 273L0 218L0 218L0 164L0 164L0 109L0 109L0 55L0 55L0 0L99 0L99 55L153 55L153 109L162 109L162 164L225 164L225 218L135 218L135 273L144 273L144 327L72 327L72 382L135 382L135 436L243 436L243 491L153 491L153 545L90 545L90 600L126 600Z" fill="#009b48"></path></svg>