<svg xmlns="http://www.w3.org/2000/svg" version="1.1" xmlns:xlink="http://www.w3.org/1999/xlink" xmlns:svgjs="http://svgjs.com/svgjs" width="1440" height="1080" preserveAspectRatio="none" viewBox="0 0 1440 1080">
    <g mask="url(&quot;#SvgjsMask1307&quot;)" fill="none">
        <rect width="1440" height="1080" x="0" y="0" fill="url(#SvgjsLinearGradient1308)"></rect>
        <path d="M1620 259.05C1575.54 318.33 1417.5 260.55 1417.5 270C1417.5 279.52 1573.76 235.34 1620 297C1675.01 370.34 1620 418.5 1620 540C1620 650.45 1636.47 656.61 1620 760.91C1615.15 791.61 1577.37 789.32 1577.37 810C1577.37 825.43 1616.5 810.97 1620 833.14C1637.81 945.97 1684.48 1021.05 1620 1080C1549.48 1144.48 1485 1080 1350 1080C1215 1080 1215 1080 1080 1080C945 1080 945 1080 810 1080C675 1080 675 1080 540 1080C405 1080 405 1080 270 1080C135 1080 67.5 1147.5 0 1080C-67.5 1012.5 0 945 0 810C0 738.53 -45.23 705.61 0 667.06C89.77 590.53 133.74 618.87 270 579.84C355.52 555.34 443.57 561.54 443.57 540C443.57 518.26 358.64 503.19 270 493.27C136.85 478.36 74.34 551.81 0 490.34C-60.66 440.18 0 380.17 0 270C0 135 -67.5 67.5 0 0C67.5 -67.5 135 0 270 0C405 0 405 0 540 0C675 0 675 0 810 0C945 0 945 0 1080 0C1215 0 1215 0 1350 0C1485 0 1551.1 -66.1 1620 0C1686.1 63.42 1676.79 183.33 1620 259.05" stroke="rgba(244, 200, 225, 1)" stroke-width="2"></path>
        <path d="M810 457.83C725.31 470.17 652.5 510.64 652.5 540C652.5 566.49 732.8 548.63 810 569.53C946.55 606.49 955.23 664.73 1080 655.71C1159.38 649.97 1218.29 588.34 1218.29 540C1218.29 499.33 1153.3 492.44 1080 477.69C949.16 451.36 939.06 439.02 810 457.83" stroke="rgba(0, 206, 93, 1)" stroke-width="2"></path>
        <path d="M108 0C197.28 44.64 199.36 135 270 135C323.76 135 293.75 31.52 356.79 0C428.75 -35.98 448.39 0 540 0C675 0 675 0 810 0C945 0 945 0 1080 0C1215 0 1215 0 1350 0C1485 0 1536.75 -51.75 1620 0C1671.75 32.17 1671.66 139.57 1620 167.84C1536.66 213.44 1465.94 115.19 1350 147.74C1283.98 166.27 1311.57 217.45 1256.09 270C1176.57 345.34 1171.83 403.52 1080 403.52C971.28 403.52 959.74 345.36 855 270C824.74 248.22 836.22 209.25 810 209.25C776.9 209.25 774.16 240.87 736.36 270C639.16 344.88 649.9 395.24 540 417.27C416.72 441.97 405.21 364.59 270 363.46C135.21 362.33 88.81 443.5 0 412.76C-46.19 396.77 0 341.38 0 270C0 135 -38.57 96.43 0 0C15.43 -38.57 62.28 -22.86 108 0" stroke="rgba(244, 200, 225, 1)" stroke-width="2"></path>
        <path d="M1542.86 540C1542.86 531.39 1588.57 522 1620 522C1627.14 522 1620 531 1620 540C1620 548.18 1626.63 556.36 1620 556.36C1588.06 556.36 1542.86 548.57 1542.86 540" stroke="rgba(244, 200, 225, 1)" stroke-width="2"></path>
        <path d="M55.59 810C161.26 747.81 167.53 690.49 270 690.49C350.68 690.49 380.62 729.48 421.88 810C480.41 924.23 513.52 1001.87 469.57 1080C437.58 1136.87 369.78 1080 270 1080C135 1080 72.81 1142.19 0 1080C-62.19 1026.88 -21.46 953.59 0 849.38C6.34 818.59 26.26 827.26 55.59 810" stroke="rgba(0, 206, 93, 1)" stroke-width="2"></path>
        <path d="M646.98 810C646.98 730.37 719.52 678.45 810 675C936.03 670.19 947.19 799 1080 793.47C1217.19 787.75 1246.34 647.14 1350 652.5C1406.21 655.41 1346.11 754.97 1399.74 810C1481.11 893.5 1551.18 845.21 1620 929.57C1661.31 980.21 1668.3 1053.09 1620 1080C1533.3 1128.3 1485 1080 1350 1080C1215 1080 1215 1080 1080 1080C962.61 1080 959.68 1089.81 845.22 1080C824.68 1078.24 822.36 1073.69 810 1056.86C723.24 938.69 646.98 921.3 646.98 810" stroke="rgba(0, 206, 93, 1)" stroke-width="2"></path>
        <path d="M0 103.24C61.9 103.24 202.5 205.96 202.5 270C202.5 321.93 77.51 335.17 0 335.17C-23.74 335.17 0 302.59 0 270C0 186.62 -39.35 103.24 0 103.24" stroke="rgba(244, 200, 225, 1)" stroke-width="2"></path>
        <path d="M540 250.71C468.43 242 477.32 100.89 477.32 0C477.32 -24.47 508.66 0 540 0C675 0 675 0 810 0C945 0 945 0 1080 0C1215 0 1215 0 1350 0C1485 0 1514.84 -29.84 1620 0C1649.84 8.47 1649.35 74.4 1620 76.62C1514.35 84.59 1457.82 -24.78 1350 20.38C1226.95 71.91 1261.15 152.26 1158.26 270C1126.15 306.74 1120.81 329.34 1080 329.34C1031.68 329.34 1019.06 311.79 980 270C884.06 167.37 910.09 44.89 810 40.5C690.09 35.24 634.77 262.25 540 250.71" stroke="rgba(244, 200, 225, 1)" stroke-width="2"></path>
        <path d="M254.12 810C261.57 804.79 262.41 801.15 270 801.15C275.98 801.15 279.93 803.06 281.25 810C306.35 942.48 327.54 966.88 322.83 1080C321.92 1101.88 296.41 1080 270 1080C135 1080 101.25 1113.75 0 1080C-33.75 1068.75 -28.49 1020.27 0 990C98.57 885.27 126.57 899.22 254.12 810" stroke="rgba(244, 200, 225, 1)" stroke-width="2"></path>
        <path d="M774.34 810C774.34 792.58 790.19 780.47 810 780.47C840.61 780.47 875.17 790.87 875.17 810C875.17 832.63 838.57 864 810 864C788.16 864 774.34 834.35 774.34 810" stroke="rgba(0, 206, 93, 1)" stroke-width="2"></path>
        <path d="M1230 1080C1230 1067.25 1286.75 1039.67 1350 1030.91C1481.75 1012.67 1507.5 1005.55 1620 1026C1642.5 1030.09 1642.5 1075.5 1620 1080C1507.5 1102.5 1485 1080 1350 1080C1290 1080 1230 1091.8 1230 1080" stroke="rgba(244, 200, 225, 1)" stroke-width="2"></path>
    </g>
    <defs>
        <mask id="SvgjsMask1307">
            <rect width="1440" height="1080" fill="#ffffff"></rect>
        </mask>
        <linearGradient x1="6.25%" y1="-8.33%" x2="93.75%" y2="108.33%" gradientUnits="userSpaceOnUse" id="SvgjsLinearGradient1308">
            <stop stop-color="rgba(45, 29, 143, 1)" offset="0"></stop>
            <stop stop-color="rgba(219, 77, 158, 1)" offset="1"></stop>
        </linearGradient>
    </defs>
</svg>